<?xml-stylesheet type="text/css" href="../style.css"?>
<svg id="napoleon" xmlns="http://www.w3.org/2000/svg" version="1.1" width="227.9" height="268.7" viewBox="0 0 227.9 268.7"><style><![CDATA[
	#armsup{opacity:0;}
	.st0{fill:#E6E6E6;}
	.st1{fill:#865D15;}
	.st2{fill:#1C3664;}
	.st3{fill:#ED1C24;}
	.st4{fill:#F9A571;}
	.st5{fill:#2F1010;}
	.st6{fill:#FDB614;}
	.st7{display:inline;}
	.st8{fill:#D36A43;}
]]></style><g id="armsdown" class="st9"><g id="XMLID_1_" class="st7"><path class="st3" d="M185 183.8h-14.2v14.1h28.4v-14.1z"/><path class="st2" d="M156.6 212h14.2v14.1h-14.2z"/><path class="st4" d="M185 197.9h-28.4V212h14.2v14.1h28.4v-28.2z"/><path class="st1" d="M156.6 70.9h14.2V85h-14.2z"/><path class="st2" d="M185 169.7v-14.2h-14.2v-28.2h-14.2v28.2h-14.2v42.4h28.4v-14.1h28.4v-14.1z"/><path class="st6" d="M128.2 183.8h14.2v14.1h-14.2z"/><path class="st2" d="M128.2 84.9h14.2V99h-14.2z"/><path class="st0" d="M114 183.8h14.2v14.1H114zM114 141.4H99.8V169.7H114v-14.2h14.2v-14.1z"/><path class="st6" d="M114 28.5H99.8v28.2h28.4V28.5z"/><path class="st8" d="M128.2 113.2H85.5v14.1H142.4v-14.1z"/><path class="st2" d="M85.5 84.9h14.2V99H85.5z"/><path class="st3" d="M142.4 127.3v14.1h-14.2v14.1H114v14.2H99.8V141.4H85.5v-14.1H71.3v28.2h14.2V183.8H71.3V212h14.2v-14.1H114v-14.1h28.4V155.5h14.2v-28.2z"/><path class="st2" d="M57.1 212h14.2v14.1H57.1z"/><path class="st4" d="M156.6 84.9v-14H71.3V85H57.1V113.3h14.2v14.1h14.2v-14.1H142.4v14.1h14.2v-14.1h14.2V84.9h-14.2zM85.5 99.1V84.9h14.2V99H85.5zm42.7 0V84.9h14.2V99h-14.2z"/><path class="st4" d="M114 127.3H85.5v14.1H142.4v-14.1h-14.2z"/><path class="st1" d="M57.1 70.9h14.2V85H57.1z"/><path class="st5" d="M185 254.3v-14h-14.2v-14.2h-14.2v-28.2H85.5V212H71.3v14.1H57.1v14.2H42.9v14H28.7v14.2h56.8v-28.2h14.3V212h28.4V240.3h14.2v28.2h56.8v-14.2z"/><path class="st4" d="M57.1 197.9H28.7v28.2h28.4V212h14.2v-14.1z"/><path class="st3" d="M42.9 183.8H28.7v14.1h28.4v-14.1z"/><path class="st2" d="M71.3 155.5v-28.2H57.1v28.2H42.9v14.2H28.7v14.1h28.4v14.1h14.2v-14.1h14.2V155.5z"/><path class="st5" d="M213.5 70.9V56.7H185V42.6h-14.2V28.5h-14.2V14.4h-14.2V.2H85.5v14.1H71.3v14.1H57.1v14.1H42.9v14.1H14.5v14.1H.2v14.1H57V70.9h113.8V85h56.8V70.9h-14.1zm-85.3-28.3v14.1H99.8V28.5h28.4v14.1z"/></g></g><g id="armsup"><g id="XMLID_2_"><path class="st5" d="M213.5 70.9h14.2V85h-14.2z"/><path class="st3" d="M199.2 56.7H185v14.2h28.5V56.7z"/><path class="st4" d="M199.2 28.5H185v14.1h-14.2v14.1h42.7V28.5z"/><path class="st1" d="M156.6 70.9h14.2V85h-14.2z"/><path class="st2" d="M199.2 70.9H185v14h-14.2V113.2h-14.2v42.3h-14.2v42.4h14.2v28.2h14.2v-70.6H185v-28.2h14.2V99.1h14.3V70.9z"/><path class="st6" d="M128.2 183.8h14.2v14.1h-14.2z"/><path class="st2" d="M128.2 84.9h14.2V99h-14.2z"/><path class="st0" d="M114 183.8h14.2v14.1H114zM114 141.4H99.8V169.7H114v-14.2h14.2v-14.1z"/><path class="st6" d="M114 28.5H99.8v28.2h28.4V28.5z"/><path class="st8" d="M128.2 113.2H85.5v14.1H142.4v-14.1z"/><path class="st2" d="M85.5 84.9h14.2V99H85.5zM57.1 212h14.2v14.1H57.1z"/><path class="st3" d="M142.4 127.3v14.1h-14.2v14.1H114v14.2H99.8V141.4H85.5v-14.1H71.3v28.2h14.2V183.8H71.3v14.1H57.1V212h28.4v-14.1H114v-14.1h28.4V155.5h14.2v-28.2z"/><path class="st4" d="M156.6 84.9v-14H71.3V85H57.1V113.3h14.2v14.1h14.2v-14.1H142.4v14.1h14.2v-14.1h14.2V84.9h-14.2zM85.5 99.1V84.9h14.2V99H85.5zm42.7 0V84.9h14.2V99h-14.2z"/><path class="st4" d="M114 127.3H85.5v14.1H142.4v-14.1h-14.2z"/><path class="st1" d="M57.1 70.9h14.2V85H57.1z"/><path class="st5" d="M170.8 56.7V28.5h-14.2V14.4h-14.2V.2H85.5v14.1H71.3v14.1H57.1v28.2H42.9v28.2h14.2V70.9h113.7V85H185V56.7h-14.2zm-56.8 0H99.8V28.5h28.4v28.2H114z"/><path class="st4" d="M42.9 42.6V28.5H14.5v28.2H57.1V42.6z"/><path class="st5" d="M185 254.3v-14h-14.2v-14.2h-14.2v-28.2H85.5V212H71.3v14.1H57.1v14.2H42.9v14H28.7v14.2h56.8v-28.2h14.3V212h28.4V240.3h14.2v28.2h56.8v-14.2z"/><path class="st2" d="M71.3 155.5v-42.3H57.1V84.9H42.9v-14H14.5v28.2h14.2v28.2h14.2v28.2h14.2v42.4h14.2v-14.1h14.2V155.5z"/><path class="st3" d="M28.7 56.7H14.5v14.2h28.4V56.7z"/><path class="st5" d="M.2 70.9h14.2V85H.2z"/></g></g></svg>