<?xml version="1.0" encoding="utf-8"?>
<!-- Generator: Adobe Illustrator 16.0.0, SVG Export Plug-In . SVG Version: 6.00 Build 0)  -->
<!DOCTYPE svg PUBLIC "-//W3C//DTD SVG 1.1//EN" "http://www.w3.org/Graphics/SVG/1.1/DTD/svg11.dtd">
<svg version="1.1" xmlns="http://www.w3.org/2000/svg" xmlns:xlink="http://www.w3.org/1999/xlink" x="0px" y="0px" width="227.9px"
	 height="268.7px" viewBox="0 0 227.9 268.7" style="enable-background:new 0 0 227.9 268.7;" xml:space="preserve">
<style type="text/css">
<![CDATA[
	.st0{fill:#E6E6E6;}
	.st1{fill:#865D15;}
	.st2{fill:#1C3664;}
	.st3{fill:#ED1C24;}
	.st4{fill:#F9A571;}
	.st5{fill:#2F1010;}
	.st6{fill:#FDB614;}
	.st7{fill:#D36A43;}
]]>
</style>
<g id="Layer_1">
	<g>
		<g id="XMLID_1_">
			<polygon class="st3" points="185,183.8 170.8,183.8 170.8,197.9 185,197.9 199.2,197.9 199.2,183.8 			"/>
			<polygon class="st4" points="185,197.9 170.8,197.9 156.6,197.9 156.6,212 170.8,212 170.8,226.1 185,226.1 199.2,226.1 
				199.2,212 199.2,197.9 			"/>
			<rect x="128.2" y="183.8" class="st6" width="14.2" height="14.1"/>
			<rect x="114" y="183.8" class="st0" width="14.2" height="14.1"/>
			<polygon class="st0" points="114,141.4 99.8,141.4 99.8,155.5 99.8,169.7 114,169.7 114,155.5 128.2,155.5 128.2,141.4 			"/>
			<polygon class="st6" points="114,28.5 99.8,28.5 99.8,42.6 99.8,56.7 114,56.7 128.2,56.7 128.2,42.6 128.2,28.5 			"/>
			<polygon class="st7" points="128.2,113.2 114,113.2 99.8,113.2 85.5,113.2 85.5,127.3 99.8,127.3 114,127.3 128.2,127.3 
				142.4,127.3 142.4,113.2 			"/>
			<path class="st2" d="M142.4,84.9v14.1h-14.2V84.9H142.4z M85.5,84.9v14.1h14.2V84.9H85.5z"/>
			<polygon class="st3" points="142.4,127.3 142.4,141.4 128.2,141.4 128.2,155.5 114,155.5 114,169.7 99.8,169.7 99.8,155.5 
				99.8,141.4 85.5,141.4 85.5,127.3 71.3,127.3 71.3,141.4 71.3,155.5 85.5,155.5 85.5,169.7 85.5,183.8 71.3,183.8 71.3,197.9 
				71.3,212 85.5,212 85.5,197.9 99.8,197.9 114,197.9 114,183.8 128.2,183.8 142.4,183.8 142.4,169.7 142.4,155.5 156.6,155.5 
				156.6,141.4 156.6,127.3 			"/>
			<g>
				<polygon class="st4" points="114,127.3 99.8,127.3 85.5,127.3 85.5,141.4 99.8,141.4 114,141.4 128.2,141.4 142.4,141.4 
					142.4,127.3 128.2,127.3 				"/>
				<path class="st4" d="M156.6,84.9V70.9h-14.2h-14.2H114H99.8H85.5H71.3v14.1H57.1v14.1v14.2h14.2v14.1h14.2v-14.1h14.2H114h14.2
					h14.2v14.1h14.2v-14.1h14.2V99.1V84.9H156.6z M85.5,99.1V84.9h14.2v14.1H85.5z M128.2,99.1V84.9h14.2v14.1H128.2z"/>
			</g>
			<path class="st1" d="M170.8,70.9v14.1h-14.2V70.9H170.8z M57.1,70.9v14.1h14.2V70.9H57.1z"/>
			<polygon class="st5" points="185,254.3 185,240.3 170.8,240.3 170.8,226.1 156.6,226.1 156.6,212 156.6,197.9 142.4,197.9 
				128.2,197.9 114,197.9 99.8,197.9 85.5,197.9 85.5,212 71.3,212 71.3,226.1 57.1,226.1 57.1,240.3 42.9,240.3 42.9,254.3 
				28.7,254.3 28.7,268.5 42.9,268.5 57.1,268.5 71.3,268.5 85.5,268.5 85.5,254.3 85.5,240.3 99.8,240.3 99.8,226.1 99.8,212 
				114,212 128.2,212 128.2,226.1 128.2,240.3 142.4,240.3 142.4,254.3 142.4,268.5 156.6,268.5 170.8,268.5 185,268.5 199.2,268.5 
				199.2,254.3 			"/>
			<polygon class="st4" points="57.1,197.9 42.9,197.9 28.7,197.9 28.7,212 28.7,226.1 42.9,226.1 57.1,226.1 57.1,212 71.3,212 
				71.3,197.9 			"/>
			<polygon class="st3" points="42.9,183.8 28.7,183.8 28.7,197.9 42.9,197.9 57.1,197.9 57.1,183.8 			"/>
			<g>
				<rect x="57.1" y="212" class="st2" width="14.2" height="14.1"/>
				<polygon class="st2" points="71.3,141.4 71.3,127.3 57.1,127.3 57.1,141.4 57.1,155.5 42.9,155.5 42.9,169.7 28.7,169.7 
					28.7,183.8 42.9,183.8 57.1,183.8 57.1,197.9 71.3,197.9 71.3,183.8 85.5,183.8 85.5,169.7 85.5,155.5 71.3,155.5 				"/>
				<rect x="156.6" y="212" class="st2" width="14.2" height="14.1"/>
				<polygon class="st2" points="185,169.7 185,155.5 170.8,155.5 170.8,141.4 170.8,127.3 156.6,127.3 156.6,141.4 156.6,155.5 
					142.4,155.5 142.4,169.7 142.4,183.8 142.4,197.9 156.6,197.9 170.8,197.9 170.8,183.8 185,183.8 199.2,183.8 199.2,169.7 				
					"/>
			</g>
			<path class="st5" d="M213.5,70.9V56.7h-14.2H185V42.6h-14.2V28.5h-14.2V14.4h-14.2V0.2h-14.2H114H99.8H85.5v14.1H71.3v14.1H57.1
				v14.1H42.9v14.1H28.7H14.5v14.1H0.2v14.1h14.2h14.2h14.2h14.2V70.9h14.2h14.2h14.2H114h14.2h14.2h14.2h14.2v14.1H185h14.2h14.2
				h14.2V70.9H213.5z M114,56.7H99.8V42.6V28.5H114h14.2v14.1v14.1H114z"/>
		</g>
	</g>
</g>
<g id="Layer_3">
</g>
</svg>
